<svg width="25.000000" height="25.000000" viewBox="0 0 25 25" fill="none" xmlns="http://www.w3.org/2000/svg" xmlns:xlink="http://www.w3.org/1999/xlink">
	<desc>
			Created with Pixso.
	</desc>
	<defs>
		<clipPath id="clip18_143">
			<rect id="Фейсбук" width="25.000000" height="25.000000" fill="white" fill-opacity="0"/>
		</clipPath>
	</defs>
	<g clip-path="url(#clip18_143)">
		<path id="path" d="M18.75 6.56233L16.2754 6.56233L15.6182 6.56233C15.0525 6.56233 14.594 7.02098 14.594 7.58676L14.594 11.1809L18.75 11.1809L18.1414 15.1376L14.594 15.1376L14.594 22.3958L10.0234 22.3958L10.0234 15.1376L6.25 15.1376L6.25 11.1809L9.97485 11.1809L10.0234 7.42515L10.0166 6.74327C9.99365 4.48029 11.8096 2.62725 14.0725 2.60436L18.75 2.60416L18.75 6.56233Z" fill="#000000" fill-opacity="0" fill-rule="nonzero"/>
		<path id="path" d="M16.2754 6.56233L15.6182 6.56233C15.0525 6.56233 14.594 7.02098 14.594 7.58676L14.594 11.1809L18.75 11.1809L18.1414 15.1376L14.594 15.1376L14.594 22.3958L10.0234 22.3958L10.0234 15.1376L6.25 15.1376L6.25 11.1809L9.97485 11.1809L10.0234 7.42515L10.0166 6.74327C9.99365 4.48029 11.8096 2.62725 14.0725 2.60436L18.75 2.60416L18.75 6.56233L16.2754 6.56233Z" stroke="#000000" stroke-opacity="1.000000" stroke-width="1.500000" stroke-linejoin="round"/>
	</g>
</svg>
