<svg width="25.000000" height="25.000000" viewBox="0 0 25 25" fill="none" xmlns="http://www.w3.org/2000/svg" xmlns:xlink="http://www.w3.org/1999/xlink">
	<desc>
			Created with Pixso.
	</desc>
	<defs>
		<clipPath id="clip18_139">
			<rect id="instagram" width="25.000000" height="25.000000" fill="white" fill-opacity="0"/>
		</clipPath>
	</defs>
	<g clip-path="url(#clip18_139)">
		<path id="path" d="M17.7083 3.125L7.29175 3.125C4.99048 3.125 3.125 4.99048 3.125 7.29167L3.125 17.7083C3.125 20.0095 4.99048 21.875 7.29175 21.875L17.7083 21.875C20.0095 21.875 21.875 20.0095 21.875 17.7083L21.875 7.29167C21.875 4.99048 20.0095 3.125 17.7083 3.125Z" fill="#000000" fill-opacity="0" fill-rule="nonzero"/>
		<path id="path" d="M7.29175 3.125C4.99048 3.125 3.125 4.99048 3.125 7.29167L3.125 17.7083C3.125 20.0095 4.99048 21.875 7.29175 21.875L17.7083 21.875C20.0095 21.875 21.875 20.0095 21.875 17.7083L21.875 7.29167C21.875 4.99048 20.0095 3.125 17.7083 3.125L7.29175 3.125Z" stroke="#000000" stroke-opacity="1.000000" stroke-width="1.500000" stroke-linejoin="round"/>
		<path id="path" d="M12.5 16.6667C14.801 16.6667 16.6665 14.8012 16.6665 12.5C16.6665 10.1988 14.801 8.33334 12.5 8.33334C10.1987 8.33334 8.33325 10.1988 8.33325 12.5C8.33325 14.8012 10.1987 16.6667 12.5 16.6667Z" fill="#000000" fill-opacity="0" fill-rule="nonzero"/>
		<path id="path" d="M16.6665 12.5C16.6665 10.1988 14.801 8.33334 12.5 8.33334C10.1987 8.33334 8.33325 10.1988 8.33325 12.5C8.33325 14.8012 10.1987 16.6667 12.5 16.6667C14.801 16.6667 16.6665 14.8012 16.6665 12.5Z" stroke="#000000" stroke-opacity="1.000000" stroke-width="1.500000" stroke-linejoin="round"/>
		<path id="path" d="M18.2292 7.81248C18.8044 7.81248 19.2708 7.34613 19.2708 6.77083C19.2708 6.19551 18.8044 5.72916 18.2292 5.72916C17.6538 5.72916 17.1875 6.19551 17.1875 6.77083C17.1875 7.34613 17.6538 7.81248 18.2292 7.81248Z" fill="#000000" fill-opacity="1.000000" fill-rule="nonzero"/>
	</g>
</svg>
