<svg width="126.931396" height="15.590820" viewBox="0 0 126.931 15.5908" fill="none" xmlns="http://www.w3.org/2000/svg" xmlns:xlink="http://www.w3.org/1999/xlink">
	<desc>
			Created with Pixso.
	</desc>
	<defs/>
	<path id="mediconnect" d="M0 15.376L3.02734 15.376L3.02734 8.82812C3.02734 7.62207 3.79395 6.81641 4.80469 6.81641C5.7959 6.81641 6.46484 7.5 6.46484 8.57422L6.46484 15.376L9.39941 15.376L9.39941 8.71582C9.39941 7.58301 10.0439 6.81641 11.1426 6.81641C12.1094 6.81641 12.8369 7.42188 12.8369 8.6377L12.8369 15.376L15.8545 15.376L15.8545 8.03711C15.8545 5.67383 14.4482 4.32617 12.417 4.32617C10.8203 4.32617 9.5752 5.1416 9.12598 6.3916L9.01367 6.3916C8.66699 5.12695 7.54883 4.32617 6.05469 4.32617C4.58008 4.32617 3.4668 5.10742 3.0127 6.3916L2.88574 6.3916L2.88574 4.46777L0 4.46777L0 15.376ZM23.2093 15.5908C25.9095 15.5908 27.7308 14.2773 28.1556 12.251L25.3578 12.0654C25.0502 12.8955 24.2689 13.3301 23.2631 13.3301C21.7494 13.3301 20.7875 12.3291 20.7875 10.7031L20.7875 10.6934L28.2191 10.6934L28.2191 9.86328C28.2191 6.15723 25.973 4.32617 23.0922 4.32617C19.8793 4.32617 17.7992 6.60645 17.7992 9.9707C17.7992 13.4277 19.85 15.5908 23.2093 15.5908ZM20.7875 8.81836C20.8558 7.57812 21.7982 6.58203 23.141 6.58203C24.4545 6.58203 25.3627 7.51953 25.3724 8.81836L20.7875 8.81836ZM34.2152 15.5518C35.973 15.5518 36.891 14.5361 37.3109 13.6279L37.4379 13.6279L37.4379 15.376L40.4213 15.376L40.4213 0.830078L37.4037 0.830078L37.4037 6.29883L37.3109 6.29883C36.9056 5.41016 36.0316 4.32617 34.2054 4.32617C31.8129 4.32617 29.7865 6.18652 29.7865 9.93652C29.7865 13.584 31.725 15.5518 34.2152 15.5518ZM35.1722 13.1445C33.6879 13.1445 32.8773 11.8262 32.8773 9.92188C32.8773 8.03223 33.6732 6.7334 35.1722 6.7334C36.642 6.7334 37.4672 7.97363 37.4672 9.92188C37.4672 11.8652 36.6273 13.1445 35.1722 13.1445ZM42.8977 15.376L45.9251 15.376L45.9251 4.46777L42.8977 4.46777L42.8977 15.376ZM44.4212 3.06152C45.3196 3.06152 46.0618 2.37305 46.0618 1.52832C46.0618 0.688477 45.3196 0 44.4212 0C43.5227 0 42.7854 0.688477 42.7854 1.52832C42.7854 2.37305 43.5227 3.06152 44.4212 3.06152ZM53.2697 15.5908C56.175 15.5908 57.9963 13.8867 58.1428 11.377L55.2863 11.377C55.1056 12.5439 54.339 13.1934 53.3039 13.1934C51.8928 13.1934 50.9748 12.0117 50.9748 9.92188C50.9748 7.86133 51.8976 6.68457 53.3039 6.68457C54.4123 6.68457 55.1203 7.41211 55.2863 8.50098L58.1428 8.50098C58.0109 5.98145 56.1017 4.32617 53.2551 4.32617C49.9445 4.32617 47.8986 6.62109 47.8986 9.96582C47.8986 13.2812 49.9103 15.5908 53.2697 15.5908ZM65.0169 15.5908C68.3274 15.5908 70.3831 13.3252 70.3831 9.96582C70.3831 6.58203 68.3274 4.32617 65.0169 4.32617C61.7063 4.32617 59.6458 6.58203 59.6458 9.96582C59.6458 13.3252 61.7063 15.5908 65.0169 15.5908ZM65.0315 13.2471C63.5032 13.2471 62.7219 11.8457 62.7219 9.94141C62.7219 8.03711 63.5032 6.63086 65.0315 6.63086C66.5305 6.63086 67.3118 8.03711 67.3118 9.94141C67.3118 11.8457 66.5305 13.2471 65.0315 13.2471ZM75.3853 9.06738C75.3902 7.66113 76.23 6.84082 77.4507 6.84082C78.6665 6.84082 79.399 7.63672 79.3892 8.96973L79.3892 15.376L82.4165 15.376L82.4165 8.42773C82.4165 5.88867 80.9224 4.32617 78.6519 4.32617C77.0308 4.32617 75.8589 5.12207 75.3707 6.3916L75.2437 6.3916L75.2437 4.46777L72.358 4.46777L72.358 15.376L75.3853 15.376L75.3853 9.06738ZM87.8214 9.06738C87.8263 7.66113 88.6661 6.84082 89.8868 6.84082C91.1026 6.84082 91.8351 7.63672 91.8253 8.96973L91.8253 15.376L94.8526 15.376L94.8526 8.42773C94.8526 5.88867 93.3585 4.32617 91.088 4.32617C89.4669 4.32617 88.295 5.12207 87.8067 6.3916L87.6798 6.3916L87.6798 4.46777L84.794 4.46777L84.794 15.376L87.8214 15.376L87.8214 9.06738ZM102.201 15.5908C104.901 15.5908 106.722 14.2773 107.147 12.251L104.349 12.0654C104.042 12.8955 103.26 13.3301 102.255 13.3301C100.741 13.3301 99.7789 12.3291 99.7789 10.7031L99.7789 10.6934L107.211 10.6934L107.211 9.86328C107.211 6.15723 104.964 4.32617 102.084 4.32617C98.8707 4.32617 96.7907 6.60645 96.7907 9.9707C96.7907 13.4277 98.8414 15.5908 102.201 15.5908ZM99.7789 8.81836C99.8473 7.57812 100.79 6.58203 102.132 6.58203C103.446 6.58203 104.354 7.51953 104.364 8.81836L99.7789 8.81836ZM114.115 15.5908C117.02 15.5908 118.841 13.8867 118.988 11.377L116.131 11.377C115.951 12.5439 115.184 13.1934 114.149 13.1934C112.738 13.1934 111.82 12.0117 111.82 9.92188C111.82 7.86133 112.743 6.68457 114.149 6.68457C115.257 6.68457 115.965 7.41211 116.131 8.50098L118.988 8.50098C118.856 5.98145 116.947 4.32617 114.1 4.32617C110.79 4.32617 108.744 6.62109 108.744 9.96582C108.744 13.2812 110.756 15.5908 114.115 15.5908ZM126.736 4.46777L124.68 4.46777L124.68 1.85547L121.658 1.85547L121.658 4.46777L120.164 4.46777L120.164 6.73828L121.658 6.73828L121.658 12.4219C121.643 14.5605 123.098 15.6152 125.291 15.5273C126.072 15.498 126.629 15.3418 126.931 15.2393L126.458 12.9883C126.306 13.0176 125.989 13.0908 125.706 13.0908C125.1 13.0908 124.68 12.8613 124.68 12.0215L124.68 6.73828L126.736 6.73828L126.736 4.46777Z" fill="#F02121" fill-opacity="1.000000" fill-rule="evenodd"/>
</svg>
