<svg width="25.000000" height="25.000000" viewBox="0 0 25 25" fill="none" xmlns="http://www.w3.org/2000/svg" xmlns:xlink="http://www.w3.org/1999/xlink">
	<desc>
			Created with Pixso.
	</desc>
	<defs>
		<clipPath id="clip18_137">
			<rect id="Телефон" width="25.000000" height="25.000000" fill="white" fill-opacity="0"/>
		</clipPath>
	</defs>
	<g clip-path="url(#clip18_137)">
		<path id="path" d="M8.85205 4.00305C9.23047 4.00305 9.5791 4.20827 9.76294 4.53912L11.0371 6.83434C11.2039 7.13486 11.2117 7.49835 11.0581 7.8058L9.83057 10.2608C9.83057 10.2608 10.1863 12.0897 11.675 13.5784C13.1638 15.0672 14.9866 15.4168 14.9866 15.4168L17.4412 14.1895C17.7488 14.0356 18.1125 14.0436 18.4131 14.2107L20.7148 15.4904C21.0454 15.6742 21.2505 16.0227 21.2505 16.4008L21.2505 19.0433C21.2505 20.389 20.0005 21.3609 18.7253 20.9306C16.1067 20.047 12.0417 18.3647 9.46533 15.7881C6.88892 13.2117 5.2063 9.14673 4.32275 6.52803C3.89258 5.25299 4.8645 4.00305 6.21021 4.00305L8.85205 4.00305Z" fill="#000000" fill-opacity="0" fill-rule="nonzero"/>
		<path id="path" d="M9.76294 4.53912L11.0371 6.83434C11.2039 7.13486 11.2117 7.49835 11.0581 7.8058L9.83057 10.2608C9.83057 10.2608 10.1863 12.0897 11.675 13.5784C13.1638 15.0672 14.9866 15.4168 14.9866 15.4168L17.4412 14.1895C17.7488 14.0356 18.1125 14.0436 18.4131 14.2107L20.7148 15.4904C21.0454 15.6742 21.2505 16.0227 21.2505 16.4008L21.2505 19.0433C21.2505 20.389 20.0005 21.3609 18.7253 20.9306C16.1067 20.047 12.0417 18.3647 9.46533 15.7881C6.88892 13.2117 5.2063 9.14673 4.32275 6.52803C3.89258 5.25299 4.8645 4.00305 6.21021 4.00305L8.85205 4.00305C9.23047 4.00305 9.5791 4.20827 9.76294 4.53912Z" stroke="#000000" stroke-opacity="1.000000" stroke-width="1.500000" stroke-linejoin="round"/>
	</g>
</svg>
